<?xml version="1.0" standalone="no"?>
<!DOCTYPE svg PUBLIC "-//W3C//DTD SVG 20010904//EN"
 "http://www.w3.org/TR/2001/REC-SVG-20010904/DTD/svg10.dtd">
<svg version="1.0" xmlns="http://www.w3.org/2000/svg"
 width="200.000000pt" height="200.000000pt" viewBox="0 0 200.000000 200.000000"
 preserveAspectRatio="xMidYMid meet">
<metadata>
Created by potrace 1.11, written by Peter Selinger 2001-2013
</metadata>
<g transform="translate(0.000000,200.000000) scale(0.100000,-0.100000)"
fill="#000000" stroke="none">
<path d="M893 1755 c-40 -13 -85 -32 -100 -42 -15 -11 -36 -23 -45 -26 -12 -4
-15 -12 -11 -23 4 -12 3 -15 -5 -10 -8 5 -14 -3 -18 -24 -4 -17 -15 -35 -25
-41 -11 -5 -19 -16 -19 -24 0 -8 -13 -28 -29 -44 -34 -35 -51 -81 -53 -142 -1
-55 12 -161 22 -174 4 -5 10 -27 14 -48 4 -21 16 -52 26 -70 11 -18 22 -62 25
-102 4 -38 13 -83 20 -100 7 -16 17 -41 22 -54 6 -17 10 6 11 79 2 57 7 111
13 122 10 19 5 23 -36 30 -11 2 -25 13 -31 26 -15 29 -7 72 12 65 8 -3 14 1
14 10 0 10 7 13 20 10 11 -3 20 -9 20 -14 0 -5 6 -6 14 -3 18 7 27 36 31 102
4 63 11 74 24 38 15 -38 18 -32 15 27 -6 85 2 105 45 117 44 11 109 77 82 82
-10 2 2 12 29 25 25 12 39 22 32 23 -7 0 -11 4 -8 9 3 5 -1 14 -9 21 -34 28 2
43 40 17 11 -8 36 -17 55 -20 34 -6 34 -6 13 10 -34 23 -28 31 19 23 23 -5 48
-6 56 -3 18 7 93 -18 86 -29 -5 -7 -27 -5 -78 9 -12 3 -16 1 -12 -6 4 -6 0
-18 -8 -27 -23 -22 -20 -33 14 -52 16 -9 30 -25 30 -35 0 -10 4 -16 9 -13 5 4
12 -8 16 -25 6 -26 2 -36 -26 -65 -34 -36 -48 -36 -50 -1 -1 13 -3 16 -5 7 -4
-12 -25 -15 -101 -16 -62 -1 -99 -6 -101 -13 -2 -6 -9 -8 -14 -5 -7 4 -8 2 -4
-4 3 -6 24 -10 46 -9 21 1 42 -2 46 -6 12 -11 -39 -46 -68 -47 -40 0 -34 -12
15 -34 23 -10 36 -20 30 -23 -19 -7 -16 -21 5 -25 34 -8 72 12 72 38 0 13 5
24 10 24 6 0 10 9 10 20 0 13 7 21 20 22 11 0 25 1 32 2 7 1 17 -24 24 -59 6
-33 17 -75 24 -93 17 -46 -3 -67 -62 -65 l-43 2 34 -10 c31 -10 32 -11 17 -28
-9 -10 -16 -24 -14 -32 3 -15 -75 -32 -108 -24 -23 5 -34 -10 -34 -46 0 -16 5
-19 20 -14 12 4 28 1 38 -7 13 -9 12 -7 -2 10 -23 27 -19 32 31 39 50 6 120
-22 103 -41 -6 -8 -18 -12 -28 -11 -59 12 -82 14 -82 6 0 -4 12 -13 27 -20 15
-7 22 -15 17 -19 -23 -15 -24 -44 -3 -73 11 -16 15 -29 9 -29 -6 0 -9 -4 -6
-9 3 -5 -8 -14 -26 -20 -62 -22 -117 -10 -171 35 -16 14 -32 22 -36 18 -3 -4
0 -9 7 -11 6 -3 12 -11 12 -19 0 -16 55 -73 113 -117 32 -24 37 -34 37 -67 0
-76 -36 -66 -173 46 -32 26 -31 14 2 -20 l34 -35 -27 -31 c-14 -17 -26 -36
-26 -42 0 -5 -9 -23 -21 -40 -12 -16 -19 -32 -15 -35 9 -10 36 18 51 54 10 25
18 31 32 27 14 -5 15 -4 4 4 -12 8 -11 13 2 32 15 22 15 22 26 2 6 -12 11 -45
11 -75 0 -51 2 -55 35 -73 44 -23 48 -35 28 -81 -19 -46 -13 -145 12 -213 9
-25 21 -63 26 -85 6 -27 16 -41 27 -42 14 -1 16 6 13 45 l-5 47 -6 -35 c-4
-22 -9 -29 -13 -20 -20 52 -47 153 -53 198 -5 43 -4 52 9 52 9 0 23 7 32 17
12 11 44 19 103 24 48 4 115 17 150 28 35 11 88 23 118 26 31 4 71 15 90 26
42 23 45 23 38 4 -7 -18 26 -21 44 -3 9 9 12 9 12 -1 0 -7 5 -9 11 -6 15 10
-100 89 -206 142 -146 73 -175 94 -175 125 0 15 -5 38 -11 52 -10 22 -8 29 20
61 50 57 90 147 102 231 9 56 18 81 34 97 18 17 26 41 35 112 6 49 8 110 5
136 -6 41 -4 49 16 62 14 10 19 22 15 33 -3 9 -2 22 4 29 8 9 6 14 -5 19 -20
7 -19 23 3 29 16 4 16 5 0 6 -10 0 -18 5 -18 11 0 15 -110 117 -167 156 -114
76 -243 93 -380 49z m204 9 c-3 -3 -12 -4 -19 -1 -8 3 -5 6 6 6 11 1 17 -2 13
-5z m63 -50 c0 -7 10 -15 23 -19 12 -3 17 -8 11 -11 -6 -2 -35 7 -65 20 l-54
25 42 -2 c24 -1 43 -7 43 -13z m40 -1120 c0 -8 -5 -12 -10 -9 -6 4 -8 11 -5
16 9 14 15 11 15 -7z m-33 -46 c-3 -7 -5 -2 -5 12 0 14 2 19 5 13 2 -7 2 -19
0 -25z m1 -67 c0 -24 -8 -48 -19 -60 -18 -20 -88 -45 -98 -36 -7 8 39 54 77
77 24 15 32 26 29 39 -3 11 -1 19 3 19 5 0 9 -18 8 -39z"/>
<path d="M1155 1420 c-3 -5 -1 -10 4 -10 6 0 11 5 11 10 0 6 -2 10 -4 10 -3 0
-8 -4 -11 -10z"/>
<path d="M1028 1120 c-21 -13 -61 -77 -56 -91 3 -10 98 79 98 93 0 11 -21 10
-42 -2z"/>
<path d="M591 757 c-2 -38 47 -124 101 -178 35 -36 26 -4 -12 41 -22 27 -51
72 -65 102 -13 29 -24 45 -24 35z"/>
<path d="M1660 370 c0 -6 -4 -8 -10 -5 -5 3 -10 -1 -10 -10 0 -9 -4 -14 -9
-11 -5 4 -12 0 -14 -6 -4 -9 -6 -9 -6 -1 -1 8 -11 9 -38 1 -61 -16 -61 -21 -3
-33 54 -10 55 -11 53 -42 -2 -25 0 -31 12 -27 22 9 18 -5 -7 -27 l-23 -20 33
4 c31 3 44 -7 20 -16 -10 -4 -10 -6 0 -6 30 -2 8 -19 -34 -26 -74 -11 -76 -12
-59 -45 8 -16 15 -36 15 -45 0 -19 29 -19 58 1 25 17 29 7 9 -20 -8 -10 -31
-22 -53 -26 -28 -6 -8 -8 73 -9 l112 -1 -6 37 c-16 116 -45 232 -69 280 -28
54 -44 74 -44 53z m0 -86 c0 -8 -4 -14 -10 -14 -5 0 -10 9 -10 21 0 11 5 17
10 14 6 -3 10 -13 10 -21z"/>
<path d="M230 10 c0 -5 5 -10 11 -10 5 0 7 5 4 10 -3 6 -8 10 -11 10 -2 0 -4
-4 -4 -10z"/>
</g>
</svg>
